<mxfile host="Electron" modified="2024-04-30T07:39:50.848Z" agent="Mozilla/5.0 (X11; Linux x86_64) AppleWebKit/537.36 (KHTML, like Gecko) draw.io/24.2.5 Chrome/120.0.6099.109 Electron/28.1.0 Safari/537.36" etag="fOztI-NnM9-cnQUE1Gxx" version="24.2.5" type="device">
  <diagram name="Page-1" id="Qdt8eD7eXSL5gRq8O2OR">
    <mxGraphModel dx="1622" dy="738" grid="1" gridSize="10" guides="1" tooltips="1" connect="1" arrows="1" fold="1" page="1" pageScale="1" pageWidth="850" pageHeight="1100" math="0" shadow="0">
      <root>
        <mxCell id="0" />
        <mxCell id="1" parent="0" />
        <mxCell id="0rYPaMNlqO3mktxjnJ71-1" value="PricePlanComparatorController" style="swimlane;fontStyle=1;align=center;verticalAlign=top;childLayout=stackLayout;horizontal=1;startSize=24.625;horizontalStack=0;resizeParent=1;resizeParentMax=0;resizeLast=0;collapsible=0;marginBottom=0;fillColor=#dae8fc;strokeColor=#6c8ebf;" vertex="1" parent="1">
          <mxGeometry x="459" y="20" width="737" height="207.625" as="geometry" />
        </mxCell>
        <mxCell id="0rYPaMNlqO3mktxjnJ71-2" value="- final static String PRICE_PLAN_ID_KEY" style="text;strokeColor=none;fillColor=none;align=left;verticalAlign=top;spacingLeft=4;spacingRight=4;overflow=hidden;rotatable=0;points=[[0,0.5],[1,0.5]];portConstraint=eastwest;" vertex="1" parent="0rYPaMNlqO3mktxjnJ71-1">
          <mxGeometry y="24.625" width="737" height="25" as="geometry" />
        </mxCell>
        <mxCell id="0rYPaMNlqO3mktxjnJ71-3" value="- final static String PRICE_PLAN_COMPARISONS_KEY" style="text;strokeColor=none;fillColor=none;align=left;verticalAlign=top;spacingLeft=4;spacingRight=4;overflow=hidden;rotatable=0;points=[[0,0.5],[1,0.5]];portConstraint=eastwest;" vertex="1" parent="0rYPaMNlqO3mktxjnJ71-1">
          <mxGeometry y="49.625" width="737" height="25" as="geometry" />
        </mxCell>
        <mxCell id="0rYPaMNlqO3mktxjnJ71-4" value="- PricePlanService pricePlanService" style="text;strokeColor=none;fillColor=none;align=left;verticalAlign=top;spacingLeft=4;spacingRight=4;overflow=hidden;rotatable=0;points=[[0,0.5],[1,0.5]];portConstraint=eastwest;" vertex="1" parent="0rYPaMNlqO3mktxjnJ71-1">
          <mxGeometry y="74.625" width="737" height="25" as="geometry" />
        </mxCell>
        <mxCell id="0rYPaMNlqO3mktxjnJ71-5" value="- AccountService accountService" style="text;strokeColor=none;fillColor=none;align=left;verticalAlign=top;spacingLeft=4;spacingRight=4;overflow=hidden;rotatable=0;points=[[0,0.5],[1,0.5]];portConstraint=eastwest;" vertex="1" parent="0rYPaMNlqO3mktxjnJ71-1">
          <mxGeometry y="99.625" width="737" height="25" as="geometry" />
        </mxCell>
        <mxCell id="0rYPaMNlqO3mktxjnJ71-6" style="line;strokeWidth=1;fillColor=none;align=left;verticalAlign=middle;spacingTop=-1;spacingLeft=3;spacingRight=3;rotatable=0;labelPosition=right;points=[];portConstraint=eastwest;strokeColor=inherit;" vertex="1" parent="0rYPaMNlqO3mktxjnJ71-1">
          <mxGeometry y="124.625" width="737" height="8" as="geometry" />
        </mxCell>
        <mxCell id="0rYPaMNlqO3mktxjnJ71-7" value="+ PricePlanComparatorController(PricePlanService pricePlanService, AccountService accountService)" style="text;strokeColor=none;fillColor=none;align=left;verticalAlign=top;spacingLeft=4;spacingRight=4;overflow=hidden;rotatable=0;points=[[0,0.5],[1,0.5]];portConstraint=eastwest;" vertex="1" parent="0rYPaMNlqO3mktxjnJ71-1">
          <mxGeometry y="132.625" width="737" height="25" as="geometry" />
        </mxCell>
        <mxCell id="0rYPaMNlqO3mktxjnJ71-8" value="+ ResponseEntity&amp;gt; calculatedCostForEachPricePlan(String smartMeterId)" style="text;strokeColor=none;fillColor=none;align=left;verticalAlign=top;spacingLeft=4;spacingRight=4;overflow=hidden;rotatable=0;points=[[0,0.5],[1,0.5]];portConstraint=eastwest;" vertex="1" parent="0rYPaMNlqO3mktxjnJ71-1">
          <mxGeometry y="157.625" width="737" height="25" as="geometry" />
        </mxCell>
        <mxCell id="0rYPaMNlqO3mktxjnJ71-9" value="+ ResponseEntity&amp;gt;&amp;gt; recommendCheapestPricePlans(String smartMeterId, Integer limit)" style="text;strokeColor=none;fillColor=none;align=left;verticalAlign=top;spacingLeft=4;spacingRight=4;overflow=hidden;rotatable=0;points=[[0,0.5],[1,0.5]];portConstraint=eastwest;" vertex="1" parent="0rYPaMNlqO3mktxjnJ71-1">
          <mxGeometry y="182.625" width="737" height="25" as="geometry" />
        </mxCell>
        <mxCell id="0rYPaMNlqO3mktxjnJ71-10" value="PricePlanService" style="swimlane;fontStyle=1;align=center;verticalAlign=top;childLayout=stackLayout;horizontal=1;startSize=24.375;horizontalStack=0;resizeParent=1;resizeParentMax=0;resizeLast=0;collapsible=0;marginBottom=0;fillColor=#fff2cc;strokeColor=#d6b656;" vertex="1" parent="1">
          <mxGeometry x="1050" y="270" width="699" height="200.375" as="geometry" />
        </mxCell>
        <mxCell id="0rYPaMNlqO3mktxjnJ71-11" value="- List pricePlans" style="text;strokeColor=none;fillColor=none;align=left;verticalAlign=top;spacingLeft=4;spacingRight=4;overflow=hidden;rotatable=0;points=[[0,0.5],[1,0.5]];portConstraint=eastwest;" vertex="1" parent="0rYPaMNlqO3mktxjnJ71-10">
          <mxGeometry y="24.375" width="699" height="24" as="geometry" />
        </mxCell>
        <mxCell id="0rYPaMNlqO3mktxjnJ71-12" value="- MeterReadingService meterReadingService" style="text;strokeColor=none;fillColor=none;align=left;verticalAlign=top;spacingLeft=4;spacingRight=4;overflow=hidden;rotatable=0;points=[[0,0.5],[1,0.5]];portConstraint=eastwest;" vertex="1" parent="0rYPaMNlqO3mktxjnJ71-10">
          <mxGeometry y="48.375" width="699" height="24" as="geometry" />
        </mxCell>
        <mxCell id="0rYPaMNlqO3mktxjnJ71-13" style="line;strokeWidth=1;fillColor=none;align=left;verticalAlign=middle;spacingTop=-1;spacingLeft=3;spacingRight=3;rotatable=0;labelPosition=right;points=[];portConstraint=eastwest;strokeColor=inherit;" vertex="1" parent="0rYPaMNlqO3mktxjnJ71-10">
          <mxGeometry y="72.375" width="699" height="8" as="geometry" />
        </mxCell>
        <mxCell id="0rYPaMNlqO3mktxjnJ71-14" value="+ PricePlanService(List pricePlans, MeterReadingService meterReadingService)" style="text;strokeColor=none;fillColor=none;align=left;verticalAlign=top;spacingLeft=4;spacingRight=4;overflow=hidden;rotatable=0;points=[[0,0.5],[1,0.5]];portConstraint=eastwest;" vertex="1" parent="0rYPaMNlqO3mktxjnJ71-10">
          <mxGeometry y="80.375" width="699" height="24" as="geometry" />
        </mxCell>
        <mxCell id="0rYPaMNlqO3mktxjnJ71-15" value="+ Optional&amp;gt; getConsumptionCostOfElectricityReadingsForEachPricePlan(String smartMeterId)" style="text;strokeColor=none;fillColor=none;align=left;verticalAlign=top;spacingLeft=4;spacingRight=4;overflow=hidden;rotatable=0;points=[[0,0.5],[1,0.5]];portConstraint=eastwest;" vertex="1" parent="0rYPaMNlqO3mktxjnJ71-10">
          <mxGeometry y="104.375" width="699" height="24" as="geometry" />
        </mxCell>
        <mxCell id="0rYPaMNlqO3mktxjnJ71-16" value="- BigDecimal calculateCost(List electricityReadings, PricePlan pricePlan)" style="text;strokeColor=none;fillColor=none;align=left;verticalAlign=top;spacingLeft=4;spacingRight=4;overflow=hidden;rotatable=0;points=[[0,0.5],[1,0.5]];portConstraint=eastwest;" vertex="1" parent="0rYPaMNlqO3mktxjnJ71-10">
          <mxGeometry y="128.375" width="699" height="24" as="geometry" />
        </mxCell>
        <mxCell id="0rYPaMNlqO3mktxjnJ71-17" value="- BigDecimal calculateAverageReading(List electricityReadings)" style="text;strokeColor=none;fillColor=none;align=left;verticalAlign=top;spacingLeft=4;spacingRight=4;overflow=hidden;rotatable=0;points=[[0,0.5],[1,0.5]];portConstraint=eastwest;" vertex="1" parent="0rYPaMNlqO3mktxjnJ71-10">
          <mxGeometry y="152.375" width="699" height="24" as="geometry" />
        </mxCell>
        <mxCell id="0rYPaMNlqO3mktxjnJ71-18" value="- BigDecimal calculateTimeElapsed(List electricityReadings)" style="text;strokeColor=none;fillColor=none;align=left;verticalAlign=top;spacingLeft=4;spacingRight=4;overflow=hidden;rotatable=0;points=[[0,0.5],[1,0.5]];portConstraint=eastwest;" vertex="1" parent="0rYPaMNlqO3mktxjnJ71-10">
          <mxGeometry y="176.375" width="699" height="24" as="geometry" />
        </mxCell>
        <mxCell id="0rYPaMNlqO3mktxjnJ71-19" value="AccountService" style="swimlane;fontStyle=1;align=center;verticalAlign=top;childLayout=stackLayout;horizontal=1;startSize=27.75;horizontalStack=0;resizeParent=1;resizeParentMax=0;resizeLast=0;collapsible=0;marginBottom=0;fillColor=#fff2cc;strokeColor=#d6b656;" vertex="1" parent="1">
          <mxGeometry x="20" y="625" width="447" height="119.75" as="geometry" />
        </mxCell>
        <mxCell id="0rYPaMNlqO3mktxjnJ71-20" value="- Map smartMeterToPricePlanAccounts" style="text;strokeColor=none;fillColor=none;align=left;verticalAlign=top;spacingLeft=4;spacingRight=4;overflow=hidden;rotatable=0;points=[[0,0.5],[1,0.5]];portConstraint=eastwest;" vertex="1" parent="0rYPaMNlqO3mktxjnJ71-19">
          <mxGeometry y="27.75" width="447" height="28" as="geometry" />
        </mxCell>
        <mxCell id="0rYPaMNlqO3mktxjnJ71-21" style="line;strokeWidth=1;fillColor=none;align=left;verticalAlign=middle;spacingTop=-1;spacingLeft=3;spacingRight=3;rotatable=0;labelPosition=right;points=[];portConstraint=eastwest;strokeColor=inherit;" vertex="1" parent="0rYPaMNlqO3mktxjnJ71-19">
          <mxGeometry y="55.75" width="447" height="8" as="geometry" />
        </mxCell>
        <mxCell id="0rYPaMNlqO3mktxjnJ71-22" value="+ AccountService(Map smartMeterToPricePlanAccounts)" style="text;strokeColor=none;fillColor=none;align=left;verticalAlign=top;spacingLeft=4;spacingRight=4;overflow=hidden;rotatable=0;points=[[0,0.5],[1,0.5]];portConstraint=eastwest;" vertex="1" parent="0rYPaMNlqO3mktxjnJ71-19">
          <mxGeometry y="63.75" width="447" height="28" as="geometry" />
        </mxCell>
        <mxCell id="0rYPaMNlqO3mktxjnJ71-23" value="+ String getPricePlanIdForSmartMeterId(String smartMeterId)" style="text;strokeColor=none;fillColor=none;align=left;verticalAlign=top;spacingLeft=4;spacingRight=4;overflow=hidden;rotatable=0;points=[[0,0.5],[1,0.5]];portConstraint=eastwest;" vertex="1" parent="0rYPaMNlqO3mktxjnJ71-19">
          <mxGeometry y="91.75" width="447" height="28" as="geometry" />
        </mxCell>
        <mxCell id="0rYPaMNlqO3mktxjnJ71-24" value="MeterReadingController" style="swimlane;fontStyle=1;align=center;verticalAlign=top;childLayout=stackLayout;horizontal=1;startSize=25.5;horizontalStack=0;resizeParent=1;resizeParentMax=0;resizeLast=0;collapsible=0;marginBottom=0;fillColor=#dae8fc;strokeColor=#6c8ebf;" vertex="1" parent="1">
          <mxGeometry x="459" y="260" width="517" height="163.5" as="geometry" />
        </mxCell>
        <mxCell id="0rYPaMNlqO3mktxjnJ71-25" value="- MeterReadingService meterReadingService" style="text;strokeColor=none;fillColor=none;align=left;verticalAlign=top;spacingLeft=4;spacingRight=4;overflow=hidden;rotatable=0;points=[[0,0.5],[1,0.5]];portConstraint=eastwest;" vertex="1" parent="0rYPaMNlqO3mktxjnJ71-24">
          <mxGeometry y="25.5" width="517" height="26" as="geometry" />
        </mxCell>
        <mxCell id="0rYPaMNlqO3mktxjnJ71-26" style="line;strokeWidth=1;fillColor=none;align=left;verticalAlign=middle;spacingTop=-1;spacingLeft=3;spacingRight=3;rotatable=0;labelPosition=right;points=[];portConstraint=eastwest;strokeColor=inherit;" vertex="1" parent="0rYPaMNlqO3mktxjnJ71-24">
          <mxGeometry y="51.5" width="517" height="8" as="geometry" />
        </mxCell>
        <mxCell id="0rYPaMNlqO3mktxjnJ71-27" value="+ MeterReadingController(MeterReadingService meterReadingService)" style="text;strokeColor=none;fillColor=none;align=left;verticalAlign=top;spacingLeft=4;spacingRight=4;overflow=hidden;rotatable=0;points=[[0,0.5],[1,0.5]];portConstraint=eastwest;" vertex="1" parent="0rYPaMNlqO3mktxjnJ71-24">
          <mxGeometry y="59.5" width="517" height="26" as="geometry" />
        </mxCell>
        <mxCell id="0rYPaMNlqO3mktxjnJ71-28" value="+ ResponseEntity storeReadings(MeterReadings meterReadings)" style="text;strokeColor=none;fillColor=none;align=left;verticalAlign=top;spacingLeft=4;spacingRight=4;overflow=hidden;rotatable=0;points=[[0,0.5],[1,0.5]];portConstraint=eastwest;" vertex="1" parent="0rYPaMNlqO3mktxjnJ71-24">
          <mxGeometry y="85.5" width="517" height="26" as="geometry" />
        </mxCell>
        <mxCell id="0rYPaMNlqO3mktxjnJ71-29" value="- boolean isMeterReadingsValid(MeterReadings meterReadings)" style="text;strokeColor=none;fillColor=none;align=left;verticalAlign=top;spacingLeft=4;spacingRight=4;overflow=hidden;rotatable=0;points=[[0,0.5],[1,0.5]];portConstraint=eastwest;" vertex="1" parent="0rYPaMNlqO3mktxjnJ71-24">
          <mxGeometry y="111.5" width="517" height="26" as="geometry" />
        </mxCell>
        <mxCell id="0rYPaMNlqO3mktxjnJ71-30" value="+ ResponseEntity readReadings(String smartMeterId)" style="text;strokeColor=none;fillColor=none;align=left;verticalAlign=top;spacingLeft=4;spacingRight=4;overflow=hidden;rotatable=0;points=[[0,0.5],[1,0.5]];portConstraint=eastwest;" vertex="1" parent="0rYPaMNlqO3mktxjnJ71-24">
          <mxGeometry y="137.5" width="517" height="26" as="geometry" />
        </mxCell>
        <mxCell id="0rYPaMNlqO3mktxjnJ71-31" value="MeterReadings" style="swimlane;fontStyle=1;align=center;verticalAlign=top;childLayout=stackLayout;horizontal=1;startSize=26.4;horizontalStack=0;resizeParent=1;resizeParentMax=0;resizeLast=0;collapsible=0;marginBottom=0;fillColor=#d5e8d4;strokeColor=#82b366;" vertex="1" parent="1">
          <mxGeometry x="1245" y="53" width="199" height="138.4" as="geometry" />
        </mxCell>
        <mxCell id="0rYPaMNlqO3mktxjnJ71-32" value="- String smartMeterId" style="text;strokeColor=none;fillColor=none;align=left;verticalAlign=top;spacingLeft=4;spacingRight=4;overflow=hidden;rotatable=0;points=[[0,0.5],[1,0.5]];portConstraint=eastwest;" vertex="1" parent="0rYPaMNlqO3mktxjnJ71-31">
          <mxGeometry y="26.4" width="199" height="26" as="geometry" />
        </mxCell>
        <mxCell id="0rYPaMNlqO3mktxjnJ71-33" value="- List electricityReadings" style="text;strokeColor=none;fillColor=none;align=left;verticalAlign=top;spacingLeft=4;spacingRight=4;overflow=hidden;rotatable=0;points=[[0,0.5],[1,0.5]];portConstraint=eastwest;" vertex="1" parent="0rYPaMNlqO3mktxjnJ71-31">
          <mxGeometry y="52.4" width="199" height="26" as="geometry" />
        </mxCell>
        <mxCell id="0rYPaMNlqO3mktxjnJ71-34" style="line;strokeWidth=1;fillColor=none;align=left;verticalAlign=middle;spacingTop=-1;spacingLeft=3;spacingRight=3;rotatable=0;labelPosition=right;points=[];portConstraint=eastwest;strokeColor=inherit;" vertex="1" parent="0rYPaMNlqO3mktxjnJ71-31">
          <mxGeometry y="78.4" width="199" height="8" as="geometry" />
        </mxCell>
        <mxCell id="0rYPaMNlqO3mktxjnJ71-35" value="+ String smartMeterId()" style="text;strokeColor=none;fillColor=none;align=left;verticalAlign=top;spacingLeft=4;spacingRight=4;overflow=hidden;rotatable=0;points=[[0,0.5],[1,0.5]];portConstraint=eastwest;" vertex="1" parent="0rYPaMNlqO3mktxjnJ71-31">
          <mxGeometry y="86.4" width="199" height="26" as="geometry" />
        </mxCell>
        <mxCell id="0rYPaMNlqO3mktxjnJ71-36" value="+ List electricityReadings()" style="text;strokeColor=none;fillColor=none;align=left;verticalAlign=top;spacingLeft=4;spacingRight=4;overflow=hidden;rotatable=0;points=[[0,0.5],[1,0.5]];portConstraint=eastwest;" vertex="1" parent="0rYPaMNlqO3mktxjnJ71-31">
          <mxGeometry y="112.4" width="199" height="26" as="geometry" />
        </mxCell>
        <mxCell id="0rYPaMNlqO3mktxjnJ71-37" value="ElectricityReading" style="swimlane;fontStyle=1;align=center;verticalAlign=top;childLayout=stackLayout;horizontal=1;startSize=26.4;horizontalStack=0;resizeParent=1;resizeParentMax=0;resizeLast=0;collapsible=0;marginBottom=0;fillColor=#d5e8d4;strokeColor=#82b366;" vertex="1" parent="1">
          <mxGeometry x="1480" y="53" width="155" height="138.4" as="geometry" />
        </mxCell>
        <mxCell id="0rYPaMNlqO3mktxjnJ71-38" value="- int reading" style="text;strokeColor=none;fillColor=none;align=left;verticalAlign=top;spacingLeft=4;spacingRight=4;overflow=hidden;rotatable=0;points=[[0,0.5],[1,0.5]];portConstraint=eastwest;" vertex="1" parent="0rYPaMNlqO3mktxjnJ71-37">
          <mxGeometry y="26.4" width="155" height="26" as="geometry" />
        </mxCell>
        <mxCell id="0rYPaMNlqO3mktxjnJ71-39" value="- String time" style="text;strokeColor=none;fillColor=none;align=left;verticalAlign=top;spacingLeft=4;spacingRight=4;overflow=hidden;rotatable=0;points=[[0,0.5],[1,0.5]];portConstraint=eastwest;" vertex="1" parent="0rYPaMNlqO3mktxjnJ71-37">
          <mxGeometry y="52.4" width="155" height="26" as="geometry" />
        </mxCell>
        <mxCell id="0rYPaMNlqO3mktxjnJ71-40" style="line;strokeWidth=1;fillColor=none;align=left;verticalAlign=middle;spacingTop=-1;spacingLeft=3;spacingRight=3;rotatable=0;labelPosition=right;points=[];portConstraint=eastwest;strokeColor=inherit;" vertex="1" parent="0rYPaMNlqO3mktxjnJ71-37">
          <mxGeometry y="78.4" width="155" height="8" as="geometry" />
        </mxCell>
        <mxCell id="0rYPaMNlqO3mktxjnJ71-41" value="+ int reading()" style="text;strokeColor=none;fillColor=none;align=left;verticalAlign=top;spacingLeft=4;spacingRight=4;overflow=hidden;rotatable=0;points=[[0,0.5],[1,0.5]];portConstraint=eastwest;" vertex="1" parent="0rYPaMNlqO3mktxjnJ71-37">
          <mxGeometry y="86.4" width="155" height="26" as="geometry" />
        </mxCell>
        <mxCell id="0rYPaMNlqO3mktxjnJ71-42" value="+ String time()" style="text;strokeColor=none;fillColor=none;align=left;verticalAlign=top;spacingLeft=4;spacingRight=4;overflow=hidden;rotatable=0;points=[[0,0.5],[1,0.5]];portConstraint=eastwest;" vertex="1" parent="0rYPaMNlqO3mktxjnJ71-37">
          <mxGeometry y="112.4" width="155" height="26" as="geometry" />
        </mxCell>
        <mxCell id="0rYPaMNlqO3mktxjnJ71-43" value="MeterReadingService" style="swimlane;fontStyle=1;align=center;verticalAlign=top;childLayout=stackLayout;horizontal=1;startSize=26.4;horizontalStack=0;resizeParent=1;resizeParentMax=0;resizeLast=0;collapsible=0;marginBottom=0;fillColor=#fff2cc;strokeColor=#d6b656;" vertex="1" parent="1">
          <mxGeometry x="517" y="615" width="485" height="138.4" as="geometry" />
        </mxCell>
        <mxCell id="0rYPaMNlqO3mktxjnJ71-44" value="- Map&amp;gt; meterAssociatedReadings" style="text;strokeColor=none;fillColor=none;align=left;verticalAlign=top;spacingLeft=4;spacingRight=4;overflow=hidden;rotatable=0;points=[[0,0.5],[1,0.5]];portConstraint=eastwest;" vertex="1" parent="0rYPaMNlqO3mktxjnJ71-43">
          <mxGeometry y="26.4" width="485" height="26" as="geometry" />
        </mxCell>
        <mxCell id="0rYPaMNlqO3mktxjnJ71-45" style="line;strokeWidth=1;fillColor=none;align=left;verticalAlign=middle;spacingTop=-1;spacingLeft=3;spacingRight=3;rotatable=0;labelPosition=right;points=[];portConstraint=eastwest;strokeColor=inherit;" vertex="1" parent="0rYPaMNlqO3mktxjnJ71-43">
          <mxGeometry y="52.4" width="485" height="8" as="geometry" />
        </mxCell>
        <mxCell id="0rYPaMNlqO3mktxjnJ71-46" value="+ MeterReadingService(Map&amp;gt; meterAssociatedReadings)" style="text;strokeColor=none;fillColor=none;align=left;verticalAlign=top;spacingLeft=4;spacingRight=4;overflow=hidden;rotatable=0;points=[[0,0.5],[1,0.5]];portConstraint=eastwest;" vertex="1" parent="0rYPaMNlqO3mktxjnJ71-43">
          <mxGeometry y="60.4" width="485" height="26" as="geometry" />
        </mxCell>
        <mxCell id="0rYPaMNlqO3mktxjnJ71-47" value="+ Optional&amp;gt; getReadings(String smartMeterId)" style="text;strokeColor=none;fillColor=none;align=left;verticalAlign=top;spacingLeft=4;spacingRight=4;overflow=hidden;rotatable=0;points=[[0,0.5],[1,0.5]];portConstraint=eastwest;" vertex="1" parent="0rYPaMNlqO3mktxjnJ71-43">
          <mxGeometry y="86.4" width="485" height="26" as="geometry" />
        </mxCell>
        <mxCell id="0rYPaMNlqO3mktxjnJ71-48" value="+ void storeReadings(String smartMeterId, List electricityReadings)" style="text;strokeColor=none;fillColor=none;align=left;verticalAlign=top;spacingLeft=4;spacingRight=4;overflow=hidden;rotatable=0;points=[[0,0.5],[1,0.5]];portConstraint=eastwest;" vertex="1" parent="0rYPaMNlqO3mktxjnJ71-43">
          <mxGeometry y="112.4" width="485" height="26" as="geometry" />
        </mxCell>
        <mxCell id="0rYPaMNlqO3mktxjnJ71-49" value="Map" style="swimlane;fontStyle=1;align=center;verticalAlign=top;childLayout=stackLayout;horizontal=1;startSize=24;horizontalStack=0;resizeParent=1;resizeParentMax=0;resizeLast=0;collapsible=0;marginBottom=0;" vertex="1" parent="1">
          <mxGeometry x="478" y="874" width="47" height="36" as="geometry" />
        </mxCell>
        <mxCell id="0rYPaMNlqO3mktxjnJ71-50" style="line;strokeWidth=1;fillColor=none;align=left;verticalAlign=middle;spacingTop=-1;spacingLeft=3;spacingRight=3;rotatable=0;labelPosition=right;points=[];portConstraint=eastwest;strokeColor=inherit;" vertex="1" parent="0rYPaMNlqO3mktxjnJ71-49">
          <mxGeometry y="24" width="47" height="12" as="geometry" />
        </mxCell>
        <mxCell id="0rYPaMNlqO3mktxjnJ71-51" value="PricePlan" style="swimlane;fontStyle=1;align=center;verticalAlign=top;childLayout=stackLayout;horizontal=1;startSize=23.7;horizontalStack=0;resizeParent=1;resizeParentMax=0;resizeLast=0;collapsible=0;marginBottom=0;fillColor=#d5e8d4;strokeColor=#82b366;" vertex="1" parent="1">
          <mxGeometry x="1050" y="615" width="718" height="247.7" as="geometry" />
        </mxCell>
        <mxCell id="0rYPaMNlqO3mktxjnJ71-52" value="- String energySupplier" style="text;strokeColor=none;fillColor=none;align=left;verticalAlign=top;spacingLeft=4;spacingRight=4;overflow=hidden;rotatable=0;points=[[0,0.5],[1,0.5]];portConstraint=eastwest;" vertex="1" parent="0rYPaMNlqO3mktxjnJ71-51">
          <mxGeometry y="23.7" width="718" height="24" as="geometry" />
        </mxCell>
        <mxCell id="0rYPaMNlqO3mktxjnJ71-53" value="- String planName" style="text;strokeColor=none;fillColor=none;align=left;verticalAlign=top;spacingLeft=4;spacingRight=4;overflow=hidden;rotatable=0;points=[[0,0.5],[1,0.5]];portConstraint=eastwest;" vertex="1" parent="0rYPaMNlqO3mktxjnJ71-51">
          <mxGeometry y="47.7" width="718" height="24" as="geometry" />
        </mxCell>
        <mxCell id="0rYPaMNlqO3mktxjnJ71-54" value="- BigDecimal unitRate" style="text;strokeColor=none;fillColor=none;align=left;verticalAlign=top;spacingLeft=4;spacingRight=4;overflow=hidden;rotatable=0;points=[[0,0.5],[1,0.5]];portConstraint=eastwest;" vertex="1" parent="0rYPaMNlqO3mktxjnJ71-51">
          <mxGeometry y="71.7" width="718" height="24" as="geometry" />
        </mxCell>
        <mxCell id="0rYPaMNlqO3mktxjnJ71-55" value="- List peakTimeMultipliers" style="text;strokeColor=none;fillColor=none;align=left;verticalAlign=top;spacingLeft=4;spacingRight=4;overflow=hidden;rotatable=0;points=[[0,0.5],[1,0.5]];portConstraint=eastwest;" vertex="1" parent="0rYPaMNlqO3mktxjnJ71-51">
          <mxGeometry y="95.7" width="718" height="24" as="geometry" />
        </mxCell>
        <mxCell id="0rYPaMNlqO3mktxjnJ71-56" style="line;strokeWidth=1;fillColor=none;align=left;verticalAlign=middle;spacingTop=-1;spacingLeft=3;spacingRight=3;rotatable=0;labelPosition=right;points=[];portConstraint=eastwest;strokeColor=inherit;" vertex="1" parent="0rYPaMNlqO3mktxjnJ71-51">
          <mxGeometry y="119.7" width="718" height="8" as="geometry" />
        </mxCell>
        <mxCell id="0rYPaMNlqO3mktxjnJ71-57" value="+ PricePlan(String planName, String energySupplier, BigDecimal unitRate, List peakTimeMultipliers)" style="text;strokeColor=none;fillColor=none;align=left;verticalAlign=top;spacingLeft=4;spacingRight=4;overflow=hidden;rotatable=0;points=[[0,0.5],[1,0.5]];portConstraint=eastwest;" vertex="1" parent="0rYPaMNlqO3mktxjnJ71-51">
          <mxGeometry y="127.7" width="718" height="24" as="geometry" />
        </mxCell>
        <mxCell id="0rYPaMNlqO3mktxjnJ71-58" value="+ String getEnergySupplier()" style="text;strokeColor=none;fillColor=none;align=left;verticalAlign=top;spacingLeft=4;spacingRight=4;overflow=hidden;rotatable=0;points=[[0,0.5],[1,0.5]];portConstraint=eastwest;" vertex="1" parent="0rYPaMNlqO3mktxjnJ71-51">
          <mxGeometry y="151.7" width="718" height="24" as="geometry" />
        </mxCell>
        <mxCell id="0rYPaMNlqO3mktxjnJ71-59" value="+ String getPlanName()" style="text;strokeColor=none;fillColor=none;align=left;verticalAlign=top;spacingLeft=4;spacingRight=4;overflow=hidden;rotatable=0;points=[[0,0.5],[1,0.5]];portConstraint=eastwest;" vertex="1" parent="0rYPaMNlqO3mktxjnJ71-51">
          <mxGeometry y="175.7" width="718" height="24" as="geometry" />
        </mxCell>
        <mxCell id="0rYPaMNlqO3mktxjnJ71-60" value="+ BigDecimal getUnitRate()" style="text;strokeColor=none;fillColor=none;align=left;verticalAlign=top;spacingLeft=4;spacingRight=4;overflow=hidden;rotatable=0;points=[[0,0.5],[1,0.5]];portConstraint=eastwest;" vertex="1" parent="0rYPaMNlqO3mktxjnJ71-51">
          <mxGeometry y="199.7" width="718" height="24" as="geometry" />
        </mxCell>
        <mxCell id="0rYPaMNlqO3mktxjnJ71-61" value="+ BigDecimal getPrice(LocalDateTime dateTime)" style="text;strokeColor=none;fillColor=none;align=left;verticalAlign=top;spacingLeft=4;spacingRight=4;overflow=hidden;rotatable=0;points=[[0,0.5],[1,0.5]];portConstraint=eastwest;" vertex="1" parent="0rYPaMNlqO3mktxjnJ71-51">
          <mxGeometry y="223.7" width="718" height="24" as="geometry" />
        </mxCell>
        <mxCell id="0rYPaMNlqO3mktxjnJ71-62" value="PeakTimeMultiplier" style="swimlane;fontStyle=1;align=center;verticalAlign=top;childLayout=stackLayout;horizontal=1;startSize=27.75;horizontalStack=0;resizeParent=1;resizeParentMax=0;resizeLast=0;collapsible=0;marginBottom=0;fillColor=#d5e8d4;strokeColor=#82b366;" vertex="1" parent="1">
          <mxGeometry x="1680" y="53" width="502" height="119.75" as="geometry" />
        </mxCell>
        <mxCell id="0rYPaMNlqO3mktxjnJ71-63" value="- DayOfWeek dayOfWeek" style="text;strokeColor=none;fillColor=none;align=left;verticalAlign=top;spacingLeft=4;spacingRight=4;overflow=hidden;rotatable=0;points=[[0,0.5],[1,0.5]];portConstraint=eastwest;" vertex="1" parent="0rYPaMNlqO3mktxjnJ71-62">
          <mxGeometry y="27.75" width="502" height="28" as="geometry" />
        </mxCell>
        <mxCell id="0rYPaMNlqO3mktxjnJ71-64" value="- BigDecimal multiplier" style="text;strokeColor=none;fillColor=none;align=left;verticalAlign=top;spacingLeft=4;spacingRight=4;overflow=hidden;rotatable=0;points=[[0,0.5],[1,0.5]];portConstraint=eastwest;" vertex="1" parent="0rYPaMNlqO3mktxjnJ71-62">
          <mxGeometry y="55.75" width="502" height="28" as="geometry" />
        </mxCell>
        <mxCell id="0rYPaMNlqO3mktxjnJ71-65" style="line;strokeWidth=1;fillColor=none;align=left;verticalAlign=middle;spacingTop=-1;spacingLeft=3;spacingRight=3;rotatable=0;labelPosition=right;points=[];portConstraint=eastwest;strokeColor=inherit;" vertex="1" parent="0rYPaMNlqO3mktxjnJ71-62">
          <mxGeometry y="83.75" width="502" height="8" as="geometry" />
        </mxCell>
        <mxCell id="0rYPaMNlqO3mktxjnJ71-66" value="+ PeakTimeMultiplier(DayOfWeek dayOfWeek, BigDecimal multiplier)" style="text;strokeColor=none;fillColor=none;align=left;verticalAlign=top;spacingLeft=4;spacingRight=4;overflow=hidden;rotatable=0;points=[[0,0.5],[1,0.5]];portConstraint=eastwest;" vertex="1" parent="0rYPaMNlqO3mktxjnJ71-62">
          <mxGeometry y="91.75" width="502" height="28" as="geometry" />
        </mxCell>
        <mxCell id="0rYPaMNlqO3mktxjnJ71-67" value="uses" style="curved=1;startArrow=diamondThin;startSize=14;startFill=1;endArrow=none;exitX=0.9991996692672999;exitY=0.9162792067859189;entryX=0.5008270743919886;entryY=0;rounded=0;" edge="1" parent="1" source="0rYPaMNlqO3mktxjnJ71-1" target="0rYPaMNlqO3mktxjnJ71-10">
          <mxGeometry relative="1" as="geometry">
            <Array as="points">
              <mxPoint x="1414" y="259" />
            </Array>
          </mxGeometry>
        </mxCell>
        <mxCell id="0rYPaMNlqO3mktxjnJ71-68" value="uses" style="curved=1;startArrow=diamondThin;startSize=14;startFill=1;endArrow=none;exitX=-0.0003339128222523745;exitY=0.9186080415091967;entryX=0.4996679250559284;entryY=0;rounded=0;" edge="1" parent="1" source="0rYPaMNlqO3mktxjnJ71-1" target="0rYPaMNlqO3mktxjnJ71-19">
          <mxGeometry relative="1" as="geometry">
            <Array as="points">
              <mxPoint x="243" y="259" />
            </Array>
          </mxGeometry>
        </mxCell>
        <mxCell id="0rYPaMNlqO3mktxjnJ71-69" value="uses" style="curved=1;startArrow=diamondThin;startSize=14;startFill=1;endArrow=none;exitX=0.4999471107350097;exitY=1;entryX=0.40432475465900075;entryY=-0.0035714285714285713;rounded=0;" edge="1" parent="1" source="0rYPaMNlqO3mktxjnJ71-24" target="0rYPaMNlqO3mktxjnJ71-43">
          <mxGeometry relative="1" as="geometry">
            <Array as="points">
              <mxPoint x="656" y="529" />
            </Array>
          </mxGeometry>
        </mxCell>
        <mxCell id="0rYPaMNlqO3mktxjnJ71-70" value="has" style="curved=1;startArrow=none;endArrow=none;exitX=0.4996679250559284;exitY=1;entryX=-0.007313829787234043;entryY=0.3994546873681547;rounded=0;" edge="1" parent="1" source="0rYPaMNlqO3mktxjnJ71-19" target="0rYPaMNlqO3mktxjnJ71-49">
          <mxGeometry relative="1" as="geometry">
            <Array as="points">
              <mxPoint x="243" y="841" />
            </Array>
          </mxGeometry>
        </mxCell>
        <mxCell id="0rYPaMNlqO3mktxjnJ71-71" value="has" style="curved=1;startArrow=diamondThin;startSize=14;startFill=1;endArrow=none;exitX=0.5276080992025644;exitY=1;entryX=0.4999673572423398;entryY=0;rounded=0;" edge="1" parent="1" source="0rYPaMNlqO3mktxjnJ71-10" target="0rYPaMNlqO3mktxjnJ71-51">
          <mxGeometry relative="1" as="geometry">
            <Array as="points">
              <mxPoint x="1439" y="529" />
            </Array>
          </mxGeometry>
        </mxCell>
        <mxCell id="0rYPaMNlqO3mktxjnJ71-72" value="uses" style="curved=1;startArrow=diamondThin;startSize=14;startFill=1;endArrow=none;exitX=0.15037967599215799;exitY=1;entryX=0.8038160025112345;entryY=-0.0035714285714285713;rounded=0;" edge="1" parent="1" source="0rYPaMNlqO3mktxjnJ71-10" target="0rYPaMNlqO3mktxjnJ71-43">
          <mxGeometry relative="1" as="geometry">
            <Array as="points">
              <mxPoint x="1088" y="529" />
            </Array>
          </mxGeometry>
        </mxCell>
        <mxCell id="0rYPaMNlqO3mktxjnJ71-73" value="has" style="curved=1;startArrow=none;endArrow=none;exitX=0.4993556701030928;exitY=0.9964285714285714;entryX=0.9975066489361702;entryY=0.3994546873681547;rounded=0;" edge="1" parent="1" source="0rYPaMNlqO3mktxjnJ71-43" target="0rYPaMNlqO3mktxjnJ71-49">
          <mxGeometry relative="1" as="geometry">
            <Array as="points">
              <mxPoint x="759" y="841" />
            </Array>
          </mxGeometry>
        </mxCell>
      </root>
    </mxGraphModel>
  </diagram>
</mxfile>
